<?xml version="1.0" standalone="no"?>
<!DOCTYPE svg PUBLIC "-//W3C//DTD SVG 20010904//EN"
 "http://www.w3.org/TR/2001/REC-SVG-20010904/DTD/svg10.dtd">
<svg version="1.0" xmlns="http://www.w3.org/2000/svg"
 width="660.000000pt" height="1280.000000pt" viewBox="0 0 660.000000 1280.000000"
 preserveAspectRatio="xMidYMid meet">
<metadata>
Created by potrace 1.15, written by Peter Selinger 2001-2017
</metadata>
<g transform="translate(0.000000,1280.000000) scale(0.100000,-0.100000)"
fill="#000000" stroke="none">
<path d="M3090 12794 c-795 -72 -1460 -374 -2093 -952 -518 -473 -813 -984
-941 -1632 -39 -198 -50 -324 -50 -595 0 -252 6 -344 35 -540 85 -567 327
-1184 604 -1540 401 -515 643 -1263 784 -2425 58 -475 101 -1213 101 -1741 0
-272 4 -297 55 -337 15 -12 44 -26 64 -31 20 -5 228 -11 463 -13 236 -1 428
-6 428 -9 0 -4 -10 -9 -22 -12 -23 -5 -130 -42 -398 -137 -80 -29 -158 -56
-174 -61 -57 -17 -106 -82 -106 -139 0 -77 62 -140 138 -140 27 0 213 61 554
181 666 234 669 235 763 272 l80 31 760 5 c737 6 761 7 794 26 68 40 67 35 75
527 22 1435 156 2393 436 3116 55 143 185 392 269 517 44 66 144 197 222 290
163 194 241 309 328 483 323 644 422 1448 270 2187 -236 1145 -1112 2135
-2219 2508 -210 71 -375 109 -615 142 -105 15 -511 27 -605 19z"/>
<path d="M4045 2864 c-148 -53 -308 -109 -355 -126 -82 -29 -166 -58 -337
-119 -46 -16 -120 -42 -165 -58 -46 -16 -346 -122 -667 -235 -321 -113 -598
-214 -615 -224 -92 -53 -84 -194 14 -245 54 -28 59 -27 425 103 140 49 257 91
345 122 47 16 121 43 165 58 44 16 402 142 795 280 393 138 732 258 754 267
22 10 49 33 64 55 60 91 -10 219 -120 218 -18 -1 -154 -44 -303 -96z"/>
<path d="M4300 2306 c-36 -10 -676 -235 -1220 -428 -47 -16 -123 -43 -170 -60
-47 -16 -121 -43 -165 -58 -44 -16 -249 -88 -455 -160 -224 -79 -384 -141
-398 -153 -98 -90 -44 -247 85 -247 22 0 78 13 124 29 46 16 469 165 939 331
470 166 866 306 880 310 14 5 90 31 170 60 80 28 183 65 229 81 47 16 95 36
108 45 36 23 63 74 63 119 0 97 -90 158 -190 131z"/>
<path d="M4230 1639 c-47 -17 -121 -43 -165 -59 -44 -16 -402 -142 -795 -280
-393 -138 -753 -265 -800 -282 -47 -16 -122 -43 -167 -59 -46 -16 -120 -42
-165 -58 -46 -16 -112 -39 -148 -52 -83 -29 -119 -54 -136 -95 -38 -92 12
-185 109 -201 34 -5 260 71 1265 428 45 16 119 42 165 58 120 42 245 87 340
120 45 16 213 75 372 131 160 56 302 108 317 116 90 47 88 188 -4 244 -45 27
-87 24 -188 -11z"/>
<path d="M2603 569 c-54 -27 -89 -91 -78 -147 14 -79 119 -215 220 -287 338
-241 778 -152 990 201 29 47 35 68 35 112 0 50 -3 58 -38 92 -52 52 -96 60
-159 29 -33 -17 -55 -36 -70 -64 -41 -75 -110 -142 -180 -177 -64 -31 -74 -33
-173 -33 -93 0 -112 3 -162 27 -72 34 -137 93 -187 173 -31 48 -49 66 -80 79
-53 21 -67 20 -118 -5z"/>
</g>
</svg>
