<?xml version="1.0" standalone="no"?>
<!DOCTYPE svg PUBLIC "-//W3C//DTD SVG 20010904//EN"
 "http://www.w3.org/TR/2001/REC-SVG-20010904/DTD/svg10.dtd">
<svg version="1.0" xmlns="http://www.w3.org/2000/svg"
 width="704.000000pt" height="1280.000000pt" viewBox="0 0 704.000000 1280.000000"
 preserveAspectRatio="xMidYMid meet">
<g transform="translate(0.000000,1280.000000) scale(0.100000,-0.100000)"
fill="#000000" stroke="none">
<path d="M3335 12789 c-342 -36 -464 -56 -659 -105 -739 -187 -1407 -627
-1890 -1244 -166 -211 -274 -385 -401 -645 -196 -400 -312 -805 -354 -1230 -6
-60 -15 -156 -21 -213 -12 -128 -13 -226 -1 -345 5 -51 15 -144 21 -207 44
-449 189 -937 395 -1326 163 -310 331 -543 627 -869 340 -375 868 -1249 1022
-1692 68 -198 66 -162 66 -1098 l0 -845 50 0 c49 0 49 -1 59 -37 5 -21 23 -92
40 -157 23 -87 31 -142 31 -205 0 -124 3 -131 56 -131 24 0 87 5 141 10 54 6
352 33 663 60 1423 127 1530 137 1536 142 2 3 20 63 40 134 56 209 49 194 100
194 l44 0 0 840 c0 931 -2 896 66 1093 154 443 684 1320 1022 1692 288 316
463 558 621 856 212 402 356 884 401 1339 6 63 16 156 21 207 12 119 11 217
-1 345 -6 57 -15 153 -21 213 -57 587 -272 1176 -612 1680 -519 771 -1344
1318 -2238 1484 -153 28 -157 29 -373 51 -209 21 -317 23 -451 9z m560 -214
c623 -72 1209 -324 1705 -730 127 -105 367 -347 466 -471 416 -520 659 -1088
749 -1749 23 -164 31 -557 16 -737 -60 -698 -318 -1351 -746 -1883 -40 -49
-130 -153 -200 -230 -146 -161 -276 -330 -432 -565 -413 -620 -699 -1205 -733
-1497 -6 -51 -10 -388 -10 -809 l0 -721 -137 -6 c-75 -4 -610 -7 -1190 -7
l-1053 0 0 723 c0 397 -5 764 -10 814 -30 289 -317 878 -721 1485 -188 282
-285 409 -456 596 -525 575 -811 1179 -920 1943 -25 177 -25 710 0 889 96 675
335 1234 751 1754 101 126 340 368 466 471 326 267 682 463 1069 589 280 92
503 134 846 160 95 7 410 -4 540 -19z"/>
<path d="M4440 2519 c-201 -19 -552 -51 -1430 -129 -311 -27 -588 -52 -615
-55 l-50 -6 -48 -84 -48 -84 47 -81 c26 -44 50 -80 54 -80 5 0 158 14 342 30
485 44 708 64 1338 120 311 27 588 52 615 55 l50 6 48 84 48 84 -47 81 c-55
94 -21 87 -304 59z"/>
<path d="M4290 2069 c-266 -25 -1435 -130 -1775 -160 -199 -17 -185 -12 -185
-69 0 -60 -17 -57 216 -35 171 16 478 43 1449 130 780 69 712 60 718 94 3 16
3 38 0 50 -7 27 -29 27 -423 -10z"/>
<path d="M4305 1860 c-311 -30 -674 -62 -1435 -130 -245 -22 -463 -42 -486
-45 -39 -6 -43 -9 -88 -89 l-47 -84 37 -63 c55 -95 60 -99 108 -93 22 2 295
27 606 54 311 28 612 54 670 60 58 6 309 28 559 51 250 22 458 42 462 45 4 2
28 40 54 83 l46 80 -46 80 -47 81 -46 -1 c-26 -1 -182 -14 -347 -29z"/>
<path d="M4490 1439 c-174 -16 -1008 -92 -1850 -167 l-305 -27 -3 -53 c-2 -40
0 -52 12 -52 8 0 162 13 343 30 180 16 582 52 893 80 311 28 688 62 838 75
150 14 276 25 281 25 12 0 20 50 14 83 -3 15 -10 26 -17 26 -6 -1 -99 -10
-206 -20z"/>
<path d="M4385 1219 c-201 -19 -1341 -122 -1770 -160 -126 -11 -240 -22 -251
-24 -15 -3 -37 -32 -68 -86 l-46 -82 35 -62 c62 -112 40 -105 265 -84 255 24
1496 135 1945 174 99 9 185 18 191 20 6 2 32 40 58 85 l47 81 -44 77 -45 77
-58 2 c-33 0 -149 -8 -259 -18z"/>
<path d="M4630 803 c-19 -2 -332 -30 -695 -63 -363 -32 -873 -78 -1132 -101
l-473 -43 0 -57 0 -57 195 -122 c177 -110 197 -120 211 -106 14 14 100 16 786
16 672 0 774 -2 788 -15 15 -14 35 -4 206 104 136 86 191 125 195 142 9 31 11
237 3 278 -7 33 -6 32 -84 24z"/>
<path d="M2975 147 c11 -8 60 -36 109 -62 51 -28 91 -56 94 -67 4 -17 22 -18
342 -18 314 0 339 1 344 18 3 9 53 43 111 75 58 32 105 60 105 63 0 2 -253 4
-562 4 -474 0 -559 -2 -543 -13z"/>
</g>
</svg>
